<mxfile host="app.diagrams.net" agent="Mozilla/5.0 (Windows NT 10.0; Win64; x64) AppleWebKit/537.36 (KHTML, like Gecko) Chrome/140.0.0.0 Safari/537.36 Edg/140.0.0.0" version="28.2.5">
  <diagram name="Página-1" id="lkOnWxnVHiDtK-SWw3xL">
    <mxGraphModel dx="2026" dy="1123" grid="1" gridSize="10" guides="1" tooltips="1" connect="1" arrows="1" fold="1" page="1" pageScale="1" pageWidth="1169" pageHeight="1654" math="0" shadow="0">
      <root>
        <mxCell id="0" />
        <mxCell id="1" parent="0" />
        <mxCell id="5275zIduOpreHUXOMpTY-29" value="" style="edgeStyle=orthogonalEdgeStyle;rounded=0;orthogonalLoop=1;jettySize=auto;html=1;" edge="1" parent="1" source="5275zIduOpreHUXOMpTY-1" target="5275zIduOpreHUXOMpTY-2">
          <mxGeometry relative="1" as="geometry" />
        </mxCell>
        <mxCell id="5275zIduOpreHUXOMpTY-1" value="inicio" style="ellipse;whiteSpace=wrap;html=1;" vertex="1" parent="1">
          <mxGeometry x="434" y="440" width="120" height="80" as="geometry" />
        </mxCell>
        <mxCell id="5275zIduOpreHUXOMpTY-30" value="" style="edgeStyle=orthogonalEdgeStyle;rounded=0;orthogonalLoop=1;jettySize=auto;html=1;" edge="1" parent="1" source="5275zIduOpreHUXOMpTY-2" target="5275zIduOpreHUXOMpTY-3">
          <mxGeometry relative="1" as="geometry" />
        </mxCell>
        <mxCell id="5275zIduOpreHUXOMpTY-2" value="ler semana" style="shape=parallelogram;perimeter=parallelogramPerimeter;whiteSpace=wrap;html=1;fixedSize=1;" vertex="1" parent="1">
          <mxGeometry x="434" y="550" width="120" height="60" as="geometry" />
        </mxCell>
        <mxCell id="5275zIduOpreHUXOMpTY-5" value="" style="edgeStyle=orthogonalEdgeStyle;rounded=0;orthogonalLoop=1;jettySize=auto;html=1;" edge="1" parent="1" source="5275zIduOpreHUXOMpTY-3" target="5275zIduOpreHUXOMpTY-4">
          <mxGeometry relative="1" as="geometry" />
        </mxCell>
        <mxCell id="5275zIduOpreHUXOMpTY-15" value="1" style="edgeLabel;html=1;align=center;verticalAlign=middle;resizable=0;points=[];" vertex="1" connectable="0" parent="5275zIduOpreHUXOMpTY-5">
          <mxGeometry x="0.3658" y="-1" relative="1" as="geometry">
            <mxPoint as="offset" />
          </mxGeometry>
        </mxCell>
        <mxCell id="5275zIduOpreHUXOMpTY-11" style="edgeStyle=orthogonalEdgeStyle;rounded=0;orthogonalLoop=1;jettySize=auto;html=1;entryX=0;entryY=1;entryDx=0;entryDy=0;" edge="1" parent="1" source="5275zIduOpreHUXOMpTY-3" target="5275zIduOpreHUXOMpTY-7">
          <mxGeometry relative="1" as="geometry">
            <Array as="points">
              <mxPoint x="571" y="680" />
              <mxPoint x="571" y="950" />
              <mxPoint x="641" y="950" />
            </Array>
          </mxGeometry>
        </mxCell>
        <mxCell id="5275zIduOpreHUXOMpTY-17" value="3" style="edgeLabel;html=1;align=center;verticalAlign=middle;resizable=0;points=[];" vertex="1" connectable="0" parent="5275zIduOpreHUXOMpTY-11">
          <mxGeometry x="0.7544" y="1" relative="1" as="geometry">
            <mxPoint as="offset" />
          </mxGeometry>
        </mxCell>
        <mxCell id="5275zIduOpreHUXOMpTY-3" value="case semana" style="shape=hexagon;perimeter=hexagonPerimeter2;whiteSpace=wrap;html=1;fixedSize=1;" vertex="1" parent="1">
          <mxGeometry x="434" y="640" width="120" height="80" as="geometry" />
        </mxCell>
        <mxCell id="5275zIduOpreHUXOMpTY-4" value="Escrever &quot;Segunda Feira&quot;" style="shape=parallelogram;perimeter=parallelogramPerimeter;whiteSpace=wrap;html=1;fixedSize=1;" vertex="1" parent="1">
          <mxGeometry x="641" y="650" width="180" height="60" as="geometry" />
        </mxCell>
        <mxCell id="5275zIduOpreHUXOMpTY-40" style="edgeStyle=orthogonalEdgeStyle;rounded=0;orthogonalLoop=1;jettySize=auto;html=1;entryX=1;entryY=0;entryDx=0;entryDy=0;" edge="1" parent="1" source="5275zIduOpreHUXOMpTY-6" target="5275zIduOpreHUXOMpTY-33">
          <mxGeometry relative="1" as="geometry" />
        </mxCell>
        <mxCell id="5275zIduOpreHUXOMpTY-6" value="Escrever &quot;TerçaFeira&quot;" style="shape=parallelogram;perimeter=parallelogramPerimeter;whiteSpace=wrap;html=1;fixedSize=1;" vertex="1" parent="1">
          <mxGeometry x="641" y="770" width="200" height="60" as="geometry" />
        </mxCell>
        <mxCell id="5275zIduOpreHUXOMpTY-7" value="Escrever &quot;QuartaFeira&quot;" style="shape=parallelogram;perimeter=parallelogramPerimeter;whiteSpace=wrap;html=1;fixedSize=1;" vertex="1" parent="1">
          <mxGeometry x="641" y="870" width="220" height="60" as="geometry" />
        </mxCell>
        <mxCell id="5275zIduOpreHUXOMpTY-38" style="edgeStyle=orthogonalEdgeStyle;rounded=0;orthogonalLoop=1;jettySize=auto;html=1;" edge="1" parent="1" source="5275zIduOpreHUXOMpTY-8" target="5275zIduOpreHUXOMpTY-33">
          <mxGeometry relative="1" as="geometry" />
        </mxCell>
        <mxCell id="5275zIduOpreHUXOMpTY-8" value="Escrever &quot;Quinta Feira&quot;" style="shape=parallelogram;perimeter=parallelogramPerimeter;whiteSpace=wrap;html=1;fixedSize=1;" vertex="1" parent="1">
          <mxGeometry x="641" y="970" width="210" height="60" as="geometry" />
        </mxCell>
        <mxCell id="5275zIduOpreHUXOMpTY-37" style="edgeStyle=orthogonalEdgeStyle;rounded=0;orthogonalLoop=1;jettySize=auto;html=1;entryX=0;entryY=0.5;entryDx=0;entryDy=0;" edge="1" parent="1" source="5275zIduOpreHUXOMpTY-9" target="5275zIduOpreHUXOMpTY-33">
          <mxGeometry relative="1" as="geometry" />
        </mxCell>
        <mxCell id="5275zIduOpreHUXOMpTY-9" value="Escrever &quot;Sexta Feira&quot;" style="shape=parallelogram;perimeter=parallelogramPerimeter;whiteSpace=wrap;html=1;fixedSize=1;" vertex="1" parent="1">
          <mxGeometry x="631" y="1055" width="220" height="60" as="geometry" />
        </mxCell>
        <mxCell id="5275zIduOpreHUXOMpTY-10" style="edgeStyle=orthogonalEdgeStyle;rounded=0;orthogonalLoop=1;jettySize=auto;html=1;entryX=0;entryY=0.833;entryDx=0;entryDy=0;entryPerimeter=0;" edge="1" parent="1" source="5275zIduOpreHUXOMpTY-3" target="5275zIduOpreHUXOMpTY-6">
          <mxGeometry relative="1" as="geometry" />
        </mxCell>
        <mxCell id="5275zIduOpreHUXOMpTY-16" value="2" style="edgeLabel;html=1;align=center;verticalAlign=middle;resizable=0;points=[];" vertex="1" connectable="0" parent="5275zIduOpreHUXOMpTY-10">
          <mxGeometry x="0.8111" y="2" relative="1" as="geometry">
            <mxPoint as="offset" />
          </mxGeometry>
        </mxCell>
        <mxCell id="5275zIduOpreHUXOMpTY-12" style="edgeStyle=orthogonalEdgeStyle;rounded=0;orthogonalLoop=1;jettySize=auto;html=1;entryX=0;entryY=0.833;entryDx=0;entryDy=0;entryPerimeter=0;" edge="1" parent="1" source="5275zIduOpreHUXOMpTY-3" target="5275zIduOpreHUXOMpTY-8">
          <mxGeometry relative="1" as="geometry">
            <Array as="points">
              <mxPoint x="521" y="1020" />
            </Array>
          </mxGeometry>
        </mxCell>
        <mxCell id="5275zIduOpreHUXOMpTY-18" value="4" style="edgeLabel;html=1;align=center;verticalAlign=middle;resizable=0;points=[];" vertex="1" connectable="0" parent="5275zIduOpreHUXOMpTY-12">
          <mxGeometry x="0.8749" y="3" relative="1" as="geometry">
            <mxPoint as="offset" />
          </mxGeometry>
        </mxCell>
        <mxCell id="5275zIduOpreHUXOMpTY-13" style="edgeStyle=orthogonalEdgeStyle;rounded=0;orthogonalLoop=1;jettySize=auto;html=1;entryX=0;entryY=0.917;entryDx=0;entryDy=0;entryPerimeter=0;" edge="1" parent="1" source="5275zIduOpreHUXOMpTY-3" target="5275zIduOpreHUXOMpTY-9">
          <mxGeometry relative="1" as="geometry">
            <Array as="points">
              <mxPoint x="441" y="1110" />
            </Array>
          </mxGeometry>
        </mxCell>
        <mxCell id="5275zIduOpreHUXOMpTY-20" value="5" style="edgeLabel;html=1;align=center;verticalAlign=middle;resizable=0;points=[];" vertex="1" connectable="0" parent="5275zIduOpreHUXOMpTY-13">
          <mxGeometry x="0.8598" relative="1" as="geometry">
            <mxPoint as="offset" />
          </mxGeometry>
        </mxCell>
        <mxCell id="5275zIduOpreHUXOMpTY-36" style="edgeStyle=orthogonalEdgeStyle;rounded=0;orthogonalLoop=1;jettySize=auto;html=1;entryX=0;entryY=1;entryDx=0;entryDy=0;" edge="1" parent="1" source="5275zIduOpreHUXOMpTY-22" target="5275zIduOpreHUXOMpTY-33">
          <mxGeometry relative="1" as="geometry" />
        </mxCell>
        <mxCell id="5275zIduOpreHUXOMpTY-22" value="Escrever &quot;Sabado &quot;" style="shape=parallelogram;perimeter=parallelogramPerimeter;whiteSpace=wrap;html=1;fixedSize=1;" vertex="1" parent="1">
          <mxGeometry x="621" y="1180" width="220" height="60" as="geometry" />
        </mxCell>
        <mxCell id="5275zIduOpreHUXOMpTY-35" style="edgeStyle=orthogonalEdgeStyle;rounded=0;orthogonalLoop=1;jettySize=auto;html=1;entryX=0.5;entryY=1;entryDx=0;entryDy=0;" edge="1" parent="1" source="5275zIduOpreHUXOMpTY-23" target="5275zIduOpreHUXOMpTY-33">
          <mxGeometry relative="1" as="geometry" />
        </mxCell>
        <mxCell id="5275zIduOpreHUXOMpTY-23" value="Escrever &quot;Domingo&quot;" style="shape=parallelogram;perimeter=parallelogramPerimeter;whiteSpace=wrap;html=1;fixedSize=1;" vertex="1" parent="1">
          <mxGeometry x="631" y="1290" width="220" height="60" as="geometry" />
        </mxCell>
        <mxCell id="5275zIduOpreHUXOMpTY-24" style="edgeStyle=orthogonalEdgeStyle;rounded=0;orthogonalLoop=1;jettySize=auto;html=1;entryX=0.006;entryY=0.828;entryDx=0;entryDy=0;entryPerimeter=0;" edge="1" parent="1" source="5275zIduOpreHUXOMpTY-3" target="5275zIduOpreHUXOMpTY-22">
          <mxGeometry relative="1" as="geometry">
            <Array as="points">
              <mxPoint x="481" y="1230" />
            </Array>
          </mxGeometry>
        </mxCell>
        <mxCell id="5275zIduOpreHUXOMpTY-25" value="6" style="edgeLabel;html=1;align=center;verticalAlign=middle;resizable=0;points=[];" vertex="1" connectable="0" parent="5275zIduOpreHUXOMpTY-24">
          <mxGeometry x="0.7245" y="-2" relative="1" as="geometry">
            <mxPoint as="offset" />
          </mxGeometry>
        </mxCell>
        <mxCell id="5275zIduOpreHUXOMpTY-26" style="edgeStyle=orthogonalEdgeStyle;rounded=0;orthogonalLoop=1;jettySize=auto;html=1;entryX=0;entryY=0.833;entryDx=0;entryDy=0;entryPerimeter=0;" edge="1" parent="1" source="5275zIduOpreHUXOMpTY-3" target="5275zIduOpreHUXOMpTY-23">
          <mxGeometry relative="1" as="geometry" />
        </mxCell>
        <mxCell id="5275zIduOpreHUXOMpTY-27" value="7" style="edgeLabel;html=1;align=center;verticalAlign=middle;resizable=0;points=[];" vertex="1" connectable="0" parent="5275zIduOpreHUXOMpTY-26">
          <mxGeometry x="0.7833" y="-2" relative="1" as="geometry">
            <mxPoint as="offset" />
          </mxGeometry>
        </mxCell>
        <mxCell id="5275zIduOpreHUXOMpTY-34" style="edgeStyle=orthogonalEdgeStyle;rounded=0;orthogonalLoop=1;jettySize=auto;html=1;entryX=1;entryY=0.5;entryDx=0;entryDy=0;" edge="1" parent="1" source="5275zIduOpreHUXOMpTY-28" target="5275zIduOpreHUXOMpTY-2">
          <mxGeometry relative="1" as="geometry">
            <Array as="points">
              <mxPoint x="991" y="1470" />
              <mxPoint x="991" y="580" />
            </Array>
          </mxGeometry>
        </mxCell>
        <mxCell id="5275zIduOpreHUXOMpTY-28" value="Escrever &quot;Numero Invalido por favor tente colocar um dia da semana (1,2,3,4,5,6,7)" style="shape=parallelogram;perimeter=parallelogramPerimeter;whiteSpace=wrap;html=1;fixedSize=1;" vertex="1" parent="1">
          <mxGeometry x="641" y="1438" width="260" height="60" as="geometry" />
        </mxCell>
        <mxCell id="5275zIduOpreHUXOMpTY-31" style="edgeStyle=orthogonalEdgeStyle;rounded=0;orthogonalLoop=1;jettySize=auto;html=1;entryX=0;entryY=0.874;entryDx=0;entryDy=0;entryPerimeter=0;" edge="1" parent="1" source="5275zIduOpreHUXOMpTY-3" target="5275zIduOpreHUXOMpTY-28">
          <mxGeometry relative="1" as="geometry">
            <Array as="points">
              <mxPoint x="391" y="680" />
              <mxPoint x="391" y="1490" />
              <mxPoint x="621" y="1490" />
            </Array>
          </mxGeometry>
        </mxCell>
        <mxCell id="5275zIduOpreHUXOMpTY-32" value="default" style="edgeLabel;html=1;align=center;verticalAlign=middle;resizable=0;points=[];" vertex="1" connectable="0" parent="5275zIduOpreHUXOMpTY-31">
          <mxGeometry x="0.705" y="1" relative="1" as="geometry">
            <mxPoint as="offset" />
          </mxGeometry>
        </mxCell>
        <mxCell id="5275zIduOpreHUXOMpTY-33" value="fim" style="ellipse;whiteSpace=wrap;html=1;" vertex="1" parent="1">
          <mxGeometry x="1121" y="1035" width="120" height="80" as="geometry" />
        </mxCell>
        <mxCell id="5275zIduOpreHUXOMpTY-39" style="edgeStyle=orthogonalEdgeStyle;rounded=0;orthogonalLoop=1;jettySize=auto;html=1;entryX=0.212;entryY=0.038;entryDx=0;entryDy=0;entryPerimeter=0;" edge="1" parent="1" source="5275zIduOpreHUXOMpTY-7" target="5275zIduOpreHUXOMpTY-33">
          <mxGeometry relative="1" as="geometry" />
        </mxCell>
        <mxCell id="5275zIduOpreHUXOMpTY-42" value="" style="edgeStyle=none;orthogonalLoop=1;jettySize=auto;html=1;rounded=0;" edge="1" parent="1">
          <mxGeometry width="80" relative="1" as="geometry">
            <mxPoint x="840" y="960" as="sourcePoint" />
            <mxPoint x="920" y="960" as="targetPoint" />
            <Array as="points" />
          </mxGeometry>
        </mxCell>
      </root>
    </mxGraphModel>
  </diagram>
</mxfile>
